#N canvas 535 151 450 300 10;
#X obj 150 103 test;
#X obj 130 141 r any1;
#X obj 193 146 r any2;
#X obj 127 172 print any1;
#X obj 205 184 print any2;
#X msg 221 65 any2 bang this is a message;
#X msg 101 15 any1 list hello there;
#X msg 184 47 any2 bang;
#X msg 28 60 any1 a wow a message;
#X msg 280 40 any1 symbol heyyy;
#X msg 265 80 any1 float 2;
#X msg 285 20 any2 5;
#X msg 76 34 any2;
#X msg 20 7 any1 wow;
#X connect 1 0 3 0;
#X connect 2 0 4 0;
#X connect 5 0 0 0;
#X connect 6 0 0 0;
#X connect 7 0 0 0;
#X connect 8 0 0 0;
#X connect 9 0 0 0;
#X connect 10 0 0 0;
#X connect 11 0 0 0;
#X connect 12 0 0 0;
#X connect 13 0 0 0;
